solid outletSide
  facet normal -1 0 0
    outer loop
      vertex -0.03 0.03 0.003
      vertex -0.03 -0.03 0.003
      vertex -0.03 0.03 0.083
    endloop
  endfacet
  facet normal -1 0 0
    outer loop
      vertex -0.03 -0.03 0.003
      vertex -0.03 -0.03 0.083
      vertex -0.03 0.03 0.083
    endloop
  endfacet
  facet normal 0 1 0
    outer loop
      vertex 0.03 0.03 0.003
      vertex -0.03 0.03 0.003
      vertex 0.03 0.03 0.083
    endloop
  endfacet
  facet normal 0 1 0
    outer loop
      vertex -0.03 0.03 0.003
      vertex -0.03 0.03 0.083
      vertex 0.03 0.03 0.083
    endloop
  endfacet
  facet normal 0 -1 0
    outer loop
      vertex -0.03 -0.03 0.003
      vertex 0.03 -0.03 0.003
      vertex -0.03 -0.03 0.083
    endloop
  endfacet
  facet normal 0 -1 0
    outer loop
      vertex 0.03 -0.03 0.003
      vertex 0.03 -0.03 0.083
      vertex -0.03 -0.03 0.083
    endloop
  endfacet
  facet normal 1 0 0
    outer loop
      vertex 0.03 -0.03 0.003
      vertex 0.03 0.03 0.003
      vertex 0.03 -0.03 0.083
    endloop
  endfacet
  facet normal 1 0 0
    outer loop
      vertex 0.03 0.03 0.003
      vertex 0.03 0.03 0.083
      vertex 0.03 -0.03 0.083
    endloop
  endfacet
endsolid outletSide
