solid outletSide
  facet normal 0.999762 0.0218152 0
    outer loop
      vertex 0.0455 -1.11443e-17 0.083
      vertex 0.0454567 0.00198468 0.003
      vertex 0.0454567 0.00198468 0.083
    endloop
  endfacet
  facet normal 0.997859 0.0654024 0
    outer loop
      vertex 0.0454567 0.00198468 0.003
      vertex 0.0453269 0.00396559 0.003
      vertex 0.0454567 0.00198468 0.083
    endloop
  endfacet
  facet normal 0.997859 0.0654024 0
    outer loop
      vertex 0.0454567 0.00198468 0.083
      vertex 0.0453269 0.00396559 0.003
      vertex 0.0453269 0.00396559 0.083
    endloop
  endfacet
  facet normal 0.994056 0.108868 0
    outer loop
      vertex 0.0453269 0.00396559 0.003
      vertex 0.0451107 0.00593894 0.003
      vertex 0.0453269 0.00396559 0.083
    endloop
  endfacet
  facet normal 0.994056 0.108868 0
    outer loop
      vertex 0.0453269 0.00396559 0.083
      vertex 0.0451107 0.00593894 0.003
      vertex 0.0451107 0.00593894 0.083
    endloop
  endfacet
  facet normal 0.988362 0.152123 0
    outer loop
      vertex 0.0451107 0.00593894 0.003
      vertex 0.0448088 0.00790099 0.003
      vertex 0.0451107 0.00593894 0.083
    endloop
  endfacet
  facet normal 0.988362 0.152123 0
    outer loop
      vertex 0.0451107 0.00593894 0.083
      vertex 0.0448088 0.00790099 0.003
      vertex 0.0448088 0.00790099 0.083
    endloop
  endfacet
  facet normal 0.980785 0.195091 0
    outer loop
      vertex 0.0448088 0.00790099 0.003
      vertex 0.0444215 0.009848 0.003
      vertex 0.0448088 0.00790099 0.083
    endloop
  endfacet
  facet normal 0.980785 0.195091 0
    outer loop
      vertex 0.0448088 0.00790099 0.083
      vertex 0.0444215 0.009848 0.003
      vertex 0.0444215 0.009848 0.083
    endloop
  endfacet
  facet normal 0.971342 0.237685 0
    outer loop
      vertex 0.0444215 0.009848 0.003
      vertex 0.0439496 0.0117763 0.003
      vertex 0.0444215 0.009848 0.083
    endloop
  endfacet
  facet normal 0.971342 0.237685 0
    outer loop
      vertex 0.0444215 0.009848 0.083
      vertex 0.0439496 0.0117763 0.003
      vertex 0.0439496 0.0117763 0.083
    endloop
  endfacet
  facet normal 0.96005 0.279829 0
    outer loop
      vertex 0.0439496 0.0117763 0.003
      vertex 0.0433941 0.0136821 0.003
      vertex 0.0439496 0.0117763 0.083
    endloop
  endfacet
  facet normal 0.96005 0.279829 0
    outer loop
      vertex 0.0439496 0.0117763 0.083
      vertex 0.0433941 0.0136821 0.003
      vertex 0.0433941 0.0136821 0.083
    endloop
  endfacet
  facet normal 0.94693 0.32144 0
    outer loop
      vertex 0.0433941 0.0136821 0.003
      vertex 0.042756 0.0155619 0.003
      vertex 0.0433941 0.0136821 0.083
    endloop
  endfacet
  facet normal 0.94693 0.32144 0
    outer loop
      vertex 0.0433941 0.0136821 0.083
      vertex 0.042756 0.0155619 0.003
      vertex 0.042756 0.0155619 0.083
    endloop
  endfacet
  facet normal 0.932008 0.362438 0
    outer loop
      vertex 0.042756 0.0155619 0.003
      vertex 0.0420365 0.0174121 0.003
      vertex 0.042756 0.0155619 0.083
    endloop
  endfacet
  facet normal 0.932008 0.362438 0
    outer loop
      vertex 0.042756 0.0155619 0.083
      vertex 0.0420365 0.0174121 0.003
      vertex 0.0420365 0.0174121 0.083
    endloop
  endfacet
  facet normal 0.915311 0.402747 0
    outer loop
      vertex 0.0420365 0.0174121 0.003
      vertex 0.041237 0.0192291 0.003
      vertex 0.0420365 0.0174121 0.083
    endloop
  endfacet
  facet normal 0.915311 0.402747 0
    outer loop
      vertex 0.0420365 0.0174121 0.083
      vertex 0.041237 0.0192291 0.003
      vertex 0.041237 0.0192291 0.083
    endloop
  endfacet
  facet normal 0.896873 0.442288 0
    outer loop
      vertex 0.041237 0.0192291 0.003
      vertex 0.040359 0.0210096 0.003
      vertex 0.041237 0.0192291 0.083
    endloop
  endfacet
  facet normal 0.896873 0.442288 0
    outer loop
      vertex 0.041237 0.0192291 0.083
      vertex 0.040359 0.0210096 0.003
      vertex 0.040359 0.0210096 0.083
    endloop
  endfacet
  facet normal 0.876727 0.480989 0
    outer loop
      vertex 0.040359 0.0210096 0.003
      vertex 0.0394042 0.02275 0.003
      vertex 0.040359 0.0210096 0.083
    endloop
  endfacet
  facet normal 0.876727 0.480989 0
    outer loop
      vertex 0.040359 0.0210096 0.083
      vertex 0.0394042 0.02275 0.003
      vertex 0.0394042 0.02275 0.083
    endloop
  endfacet
  facet normal 0.854912 0.518773 0
    outer loop
      vertex 0.0394042 0.02275 0.003
      vertex 0.0383743 0.0244471 0.003
      vertex 0.0394042 0.02275 0.083
    endloop
  endfacet
  facet normal 0.854912 0.518773 0
    outer loop
      vertex 0.0394042 0.02275 0.083
      vertex 0.0383743 0.0244471 0.003
      vertex 0.0383743 0.0244471 0.083
    endloop
  endfacet
  facet normal 0.831469 0.555571 0
    outer loop
      vertex 0.0383743 0.0244471 0.003
      vertex 0.0372714 0.0260977 0.003
      vertex 0.0383743 0.0244471 0.083
    endloop
  endfacet
  facet normal 0.831469 0.555571 0
    outer loop
      vertex 0.0383743 0.0244471 0.083
      vertex 0.0372714 0.0260977 0.003
      vertex 0.0372714 0.0260977 0.083
    endloop
  endfacet
  facet normal 0.806445 0.591309 0
    outer loop
      vertex 0.0372714 0.0260977 0.003
      vertex 0.0360976 0.0276986 0.003
      vertex 0.0372714 0.0260977 0.083
    endloop
  endfacet
  facet normal 0.806445 0.591309 0
    outer loop
      vertex 0.0372714 0.0260977 0.083
      vertex 0.0360976 0.0276986 0.003
      vertex 0.0360976 0.0276986 0.083
    endloop
  endfacet
  facet normal 0.779884 0.625924 0
    outer loop
      vertex 0.0360976 0.0276986 0.003
      vertex 0.034855 0.0292468 0.003
      vertex 0.0360976 0.0276986 0.083
    endloop
  endfacet
  facet normal 0.779884 0.625924 0
    outer loop
      vertex 0.0360976 0.0276986 0.083
      vertex 0.034855 0.0292468 0.003
      vertex 0.034855 0.0292468 0.083
    endloop
  endfacet
  facet normal 0.75184 0.659346 0
    outer loop
      vertex 0.034855 0.0292468 0.003
      vertex 0.0335461 0.0307394 0.003
      vertex 0.034855 0.0292468 0.083
    endloop
  endfacet
  facet normal 0.75184 0.659346 0
    outer loop
      vertex 0.034855 0.0292468 0.083
      vertex 0.0335461 0.0307394 0.003
      vertex 0.0335461 0.0307394 0.083
    endloop
  endfacet
  facet normal 0.722363 0.691514 0
    outer loop
      vertex 0.0335461 0.0307394 0.003
      vertex 0.0321734 0.0321734 0.003
      vertex 0.0335461 0.0307394 0.083
    endloop
  endfacet
  facet normal 0.722363 0.691514 0
    outer loop
      vertex 0.0335461 0.0307394 0.083
      vertex 0.0321734 0.0321734 0.003
      vertex 0.0321734 0.0321734 0.083
    endloop
  endfacet
  facet normal 0.691514 0.722363 0
    outer loop
      vertex 0.0321734 0.0321734 0.003
      vertex 0.0307394 0.0335461 0.003
      vertex 0.0321734 0.0321734 0.083
    endloop
  endfacet
  facet normal 0.691514 0.722363 0
    outer loop
      vertex 0.0321734 0.0321734 0.083
      vertex 0.0307394 0.0335461 0.003
      vertex 0.0307394 0.0335461 0.083
    endloop
  endfacet
  facet normal 0.659346 0.75184 0
    outer loop
      vertex 0.0307394 0.0335461 0.003
      vertex 0.0292468 0.034855 0.003
      vertex 0.0307394 0.0335461 0.083
    endloop
  endfacet
  facet normal 0.659346 0.75184 0
    outer loop
      vertex 0.0307394 0.0335461 0.083
      vertex 0.0292468 0.034855 0.003
      vertex 0.0292468 0.034855 0.083
    endloop
  endfacet
  facet normal 0.625924 0.779884 0
    outer loop
      vertex 0.0292468 0.034855 0.003
      vertex 0.0276986 0.0360976 0.003
      vertex 0.0292468 0.034855 0.083
    endloop
  endfacet
  facet normal 0.625924 0.779884 0
    outer loop
      vertex 0.0292468 0.034855 0.083
      vertex 0.0276986 0.0360976 0.003
      vertex 0.0276986 0.0360976 0.083
    endloop
  endfacet
  facet normal 0.591309 0.806445 0
    outer loop
      vertex 0.0276986 0.0360976 0.003
      vertex 0.0260977 0.0372714 0.003
      vertex 0.0276986 0.0360976 0.083
    endloop
  endfacet
  facet normal 0.591309 0.806445 0
    outer loop
      vertex 0.0276986 0.0360976 0.083
      vertex 0.0260977 0.0372714 0.003
      vertex 0.0260977 0.0372714 0.083
    endloop
  endfacet
  facet normal 0.555571 0.831469 0
    outer loop
      vertex 0.0260977 0.0372714 0.003
      vertex 0.0244471 0.0383743 0.003
      vertex 0.0260977 0.0372714 0.083
    endloop
  endfacet
  facet normal 0.555571 0.831469 0
    outer loop
      vertex 0.0260977 0.0372714 0.083
      vertex 0.0244471 0.0383743 0.003
      vertex 0.0244471 0.0383743 0.083
    endloop
  endfacet
  facet normal 0.518773 0.854912 0
    outer loop
      vertex 0.0244471 0.0383743 0.003
      vertex 0.02275 0.0394042 0.003
      vertex 0.0244471 0.0383743 0.083
    endloop
  endfacet
  facet normal 0.518773 0.854912 0
    outer loop
      vertex 0.0244471 0.0383743 0.083
      vertex 0.02275 0.0394042 0.003
      vertex 0.02275 0.0394042 0.083
    endloop
  endfacet
  facet normal 0.480989 0.876727 0
    outer loop
      vertex 0.02275 0.0394042 0.003
      vertex 0.0210096 0.040359 0.003
      vertex 0.02275 0.0394042 0.083
    endloop
  endfacet
  facet normal 0.480989 0.876727 0
    outer loop
      vertex 0.02275 0.0394042 0.083
      vertex 0.0210096 0.040359 0.003
      vertex 0.0210096 0.040359 0.083
    endloop
  endfacet
  facet normal 0.442288 0.896873 0
    outer loop
      vertex 0.0210096 0.040359 0.003
      vertex 0.0192291 0.041237 0.003
      vertex 0.0210096 0.040359 0.083
    endloop
  endfacet
  facet normal 0.442288 0.896873 0
    outer loop
      vertex 0.0210096 0.040359 0.083
      vertex 0.0192291 0.041237 0.003
      vertex 0.0192291 0.041237 0.083
    endloop
  endfacet
  facet normal 0.402747 0.915311 0
    outer loop
      vertex 0.0192291 0.041237 0.003
      vertex 0.0174121 0.0420365 0.003
      vertex 0.0192291 0.041237 0.083
    endloop
  endfacet
  facet normal 0.402747 0.915311 0
    outer loop
      vertex 0.0192291 0.041237 0.083
      vertex 0.0174121 0.0420365 0.003
      vertex 0.0174121 0.0420365 0.083
    endloop
  endfacet
  facet normal 0.362438 0.932008 0
    outer loop
      vertex 0.0174121 0.0420365 0.003
      vertex 0.0155619 0.042756 0.003
      vertex 0.0174121 0.0420365 0.083
    endloop
  endfacet
  facet normal 0.362438 0.932008 0
    outer loop
      vertex 0.0174121 0.0420365 0.083
      vertex 0.0155619 0.042756 0.003
      vertex 0.0155619 0.042756 0.083
    endloop
  endfacet
  facet normal 0.32144 0.94693 0
    outer loop
      vertex 0.0155619 0.042756 0.003
      vertex 0.0136821 0.0433941 0.003
      vertex 0.0155619 0.042756 0.083
    endloop
  endfacet
  facet normal 0.32144 0.94693 0
    outer loop
      vertex 0.0155619 0.042756 0.083
      vertex 0.0136821 0.0433941 0.003
      vertex 0.0136821 0.0433941 0.083
    endloop
  endfacet
  facet normal 0.279829 0.96005 0
    outer loop
      vertex 0.0136821 0.0433941 0.003
      vertex 0.0117763 0.0439496 0.003
      vertex 0.0136821 0.0433941 0.083
    endloop
  endfacet
  facet normal 0.279829 0.96005 0
    outer loop
      vertex 0.0136821 0.0433941 0.083
      vertex 0.0117763 0.0439496 0.003
      vertex 0.0117763 0.0439496 0.083
    endloop
  endfacet
  facet normal 0.237685 0.971342 0
    outer loop
      vertex 0.0117763 0.0439496 0.003
      vertex 0.009848 0.0444215 0.003
      vertex 0.0117763 0.0439496 0.083
    endloop
  endfacet
  facet normal 0.237685 0.971342 0
    outer loop
      vertex 0.0117763 0.0439496 0.083
      vertex 0.009848 0.0444215 0.003
      vertex 0.009848 0.0444215 0.083
    endloop
  endfacet
  facet normal 0.195091 0.980785 0
    outer loop
      vertex 0.009848 0.0444215 0.003
      vertex 0.00790099 0.0448088 0.003
      vertex 0.009848 0.0444215 0.083
    endloop
  endfacet
  facet normal 0.195091 0.980785 0
    outer loop
      vertex 0.009848 0.0444215 0.083
      vertex 0.00790099 0.0448088 0.003
      vertex 0.00790099 0.0448088 0.083
    endloop
  endfacet
  facet normal 0.152123 0.988362 0
    outer loop
      vertex 0.00790099 0.0448088 0.003
      vertex 0.00593894 0.0451107 0.003
      vertex 0.00790099 0.0448088 0.083
    endloop
  endfacet
  facet normal 0.152123 0.988362 0
    outer loop
      vertex 0.00790099 0.0448088 0.083
      vertex 0.00593894 0.0451107 0.003
      vertex 0.00593894 0.0451107 0.083
    endloop
  endfacet
  facet normal 0.108868 0.994056 0
    outer loop
      vertex 0.00593894 0.0451107 0.003
      vertex 0.00396559 0.0453269 0.003
      vertex 0.00593894 0.0451107 0.083
    endloop
  endfacet
  facet normal 0.108868 0.994056 0
    outer loop
      vertex 0.00593894 0.0451107 0.083
      vertex 0.00396559 0.0453269 0.003
      vertex 0.00396559 0.0453269 0.083
    endloop
  endfacet
  facet normal 0.0654024 0.997859 0
    outer loop
      vertex 0.00396559 0.0453269 0.003
      vertex 0.00198468 0.0454567 0.003
      vertex 0.00396559 0.0453269 0.083
    endloop
  endfacet
  facet normal 0.0654024 0.997859 0
    outer loop
      vertex 0.00396559 0.0453269 0.083
      vertex 0.00198468 0.0454567 0.003
      vertex 0.00198468 0.0454567 0.083
    endloop
  endfacet
  facet normal 0.0218152 0.999762 0
    outer loop
      vertex 0.00198468 0.0454567 0.003
      vertex 2.78607e-18 0.0455 0.003
      vertex 0.00198468 0.0454567 0.083
    endloop
  endfacet
  facet normal 0.0218152 0.999762 0
    outer loop
      vertex 0.00198468 0.0454567 0.083
      vertex 2.78607e-18 0.0455 0.003
      vertex 2.78607e-18 0.0455 0.083
    endloop
  endfacet
  facet normal -0.0218152 0.999762 0
    outer loop
      vertex 2.78607e-18 0.0455 0.003
      vertex -0.00198468 0.0454567 0.003
      vertex 2.78607e-18 0.0455 0.083
    endloop
  endfacet
  facet normal -0.0218152 0.999762 0
    outer loop
      vertex 2.78607e-18 0.0455 0.083
      vertex -0.00198468 0.0454567 0.003
      vertex -0.00198468 0.0454567 0.083
    endloop
  endfacet
  facet normal -0.0654024 0.997859 0
    outer loop
      vertex -0.00198468 0.0454567 0.003
      vertex -0.00396559 0.0453269 0.003
      vertex -0.00198468 0.0454567 0.083
    endloop
  endfacet
  facet normal -0.0654024 0.997859 0
    outer loop
      vertex -0.00198468 0.0454567 0.083
      vertex -0.00396559 0.0453269 0.003
      vertex -0.00396559 0.0453269 0.083
    endloop
  endfacet
  facet normal -0.108868 0.994056 0
    outer loop
      vertex -0.00396559 0.0453269 0.003
      vertex -0.00593894 0.0451107 0.003
      vertex -0.00396559 0.0453269 0.083
    endloop
  endfacet
  facet normal -0.108868 0.994056 0
    outer loop
      vertex -0.00396559 0.0453269 0.083
      vertex -0.00593894 0.0451107 0.003
      vertex -0.00593894 0.0451107 0.083
    endloop
  endfacet
  facet normal -0.152123 0.988362 0
    outer loop
      vertex -0.00593894 0.0451107 0.003
      vertex -0.00790099 0.0448088 0.003
      vertex -0.00593894 0.0451107 0.083
    endloop
  endfacet
  facet normal -0.152123 0.988362 0
    outer loop
      vertex -0.00593894 0.0451107 0.083
      vertex -0.00790099 0.0448088 0.003
      vertex -0.00790099 0.0448088 0.083
    endloop
  endfacet
  facet normal -0.195091 0.980785 0
    outer loop
      vertex -0.00790099 0.0448088 0.003
      vertex -0.009848 0.0444215 0.003
      vertex -0.00790099 0.0448088 0.083
    endloop
  endfacet
  facet normal -0.195091 0.980785 0
    outer loop
      vertex -0.00790099 0.0448088 0.083
      vertex -0.009848 0.0444215 0.003
      vertex -0.009848 0.0444215 0.083
    endloop
  endfacet
  facet normal -0.237685 0.971342 0
    outer loop
      vertex -0.009848 0.0444215 0.003
      vertex -0.0117763 0.0439496 0.003
      vertex -0.009848 0.0444215 0.083
    endloop
  endfacet
  facet normal -0.237685 0.971342 0
    outer loop
      vertex -0.009848 0.0444215 0.083
      vertex -0.0117763 0.0439496 0.003
      vertex -0.0117763 0.0439496 0.083
    endloop
  endfacet
  facet normal -0.279829 0.96005 0
    outer loop
      vertex -0.0117763 0.0439496 0.003
      vertex -0.0136821 0.0433941 0.003
      vertex -0.0117763 0.0439496 0.083
    endloop
  endfacet
  facet normal -0.279829 0.96005 0
    outer loop
      vertex -0.0117763 0.0439496 0.083
      vertex -0.0136821 0.0433941 0.003
      vertex -0.0136821 0.0433941 0.083
    endloop
  endfacet
  facet normal -0.32144 0.94693 0
    outer loop
      vertex -0.0136821 0.0433941 0.003
      vertex -0.0155619 0.042756 0.003
      vertex -0.0136821 0.0433941 0.083
    endloop
  endfacet
  facet normal -0.32144 0.94693 0
    outer loop
      vertex -0.0136821 0.0433941 0.083
      vertex -0.0155619 0.042756 0.003
      vertex -0.0155619 0.042756 0.083
    endloop
  endfacet
  facet normal -0.362438 0.932008 0
    outer loop
      vertex -0.0155619 0.042756 0.003
      vertex -0.0174121 0.0420365 0.003
      vertex -0.0155619 0.042756 0.083
    endloop
  endfacet
  facet normal -0.362438 0.932008 0
    outer loop
      vertex -0.0155619 0.042756 0.083
      vertex -0.0174121 0.0420365 0.003
      vertex -0.0174121 0.0420365 0.083
    endloop
  endfacet
  facet normal -0.402747 0.915311 0
    outer loop
      vertex -0.0174121 0.0420365 0.003
      vertex -0.0192291 0.041237 0.003
      vertex -0.0174121 0.0420365 0.083
    endloop
  endfacet
  facet normal -0.402747 0.915311 0
    outer loop
      vertex -0.0174121 0.0420365 0.083
      vertex -0.0192291 0.041237 0.003
      vertex -0.0192291 0.041237 0.083
    endloop
  endfacet
  facet normal -0.442288 0.896873 0
    outer loop
      vertex -0.0192291 0.041237 0.003
      vertex -0.0210096 0.040359 0.003
      vertex -0.0192291 0.041237 0.083
    endloop
  endfacet
  facet normal -0.442288 0.896873 0
    outer loop
      vertex -0.0192291 0.041237 0.083
      vertex -0.0210096 0.040359 0.003
      vertex -0.0210096 0.040359 0.083
    endloop
  endfacet
  facet normal -0.480989 0.876727 0
    outer loop
      vertex -0.0210096 0.040359 0.003
      vertex -0.02275 0.0394042 0.003
      vertex -0.0210096 0.040359 0.083
    endloop
  endfacet
  facet normal -0.480989 0.876727 0
    outer loop
      vertex -0.0210096 0.040359 0.083
      vertex -0.02275 0.0394042 0.003
      vertex -0.02275 0.0394042 0.083
    endloop
  endfacet
  facet normal -0.518773 0.854912 0
    outer loop
      vertex -0.02275 0.0394042 0.003
      vertex -0.0244471 0.0383743 0.003
      vertex -0.02275 0.0394042 0.083
    endloop
  endfacet
  facet normal -0.518773 0.854912 0
    outer loop
      vertex -0.02275 0.0394042 0.083
      vertex -0.0244471 0.0383743 0.003
      vertex -0.0244471 0.0383743 0.083
    endloop
  endfacet
  facet normal -0.555571 0.831469 0
    outer loop
      vertex -0.0244471 0.0383743 0.003
      vertex -0.0260977 0.0372714 0.003
      vertex -0.0244471 0.0383743 0.083
    endloop
  endfacet
  facet normal -0.555571 0.831469 0
    outer loop
      vertex -0.0244471 0.0383743 0.083
      vertex -0.0260977 0.0372714 0.003
      vertex -0.0260977 0.0372714 0.083
    endloop
  endfacet
  facet normal -0.591309 0.806445 0
    outer loop
      vertex -0.0260977 0.0372714 0.003
      vertex -0.0276986 0.0360976 0.003
      vertex -0.0260977 0.0372714 0.083
    endloop
  endfacet
  facet normal -0.591309 0.806445 0
    outer loop
      vertex -0.0260977 0.0372714 0.083
      vertex -0.0276986 0.0360976 0.003
      vertex -0.0276986 0.0360976 0.083
    endloop
  endfacet
  facet normal -0.625924 0.779884 0
    outer loop
      vertex -0.0276986 0.0360976 0.003
      vertex -0.0292468 0.034855 0.003
      vertex -0.0276986 0.0360976 0.083
    endloop
  endfacet
  facet normal -0.625924 0.779884 0
    outer loop
      vertex -0.0276986 0.0360976 0.083
      vertex -0.0292468 0.034855 0.003
      vertex -0.0292468 0.034855 0.083
    endloop
  endfacet
  facet normal -0.659346 0.75184 0
    outer loop
      vertex -0.0292468 0.034855 0.003
      vertex -0.0307394 0.0335461 0.003
      vertex -0.0292468 0.034855 0.083
    endloop
  endfacet
  facet normal -0.659346 0.75184 0
    outer loop
      vertex -0.0292468 0.034855 0.083
      vertex -0.0307394 0.0335461 0.003
      vertex -0.0307394 0.0335461 0.083
    endloop
  endfacet
  facet normal -0.691514 0.722363 0
    outer loop
      vertex -0.0307394 0.0335461 0.003
      vertex -0.0321734 0.0321734 0.003
      vertex -0.0307394 0.0335461 0.083
    endloop
  endfacet
  facet normal -0.691514 0.722363 0
    outer loop
      vertex -0.0307394 0.0335461 0.083
      vertex -0.0321734 0.0321734 0.003
      vertex -0.0321734 0.0321734 0.083
    endloop
  endfacet
  facet normal -0.722363 0.691514 0
    outer loop
      vertex -0.0321734 0.0321734 0.003
      vertex -0.0335461 0.0307394 0.003
      vertex -0.0321734 0.0321734 0.083
    endloop
  endfacet
  facet normal -0.722363 0.691514 0
    outer loop
      vertex -0.0321734 0.0321734 0.083
      vertex -0.0335461 0.0307394 0.003
      vertex -0.0335461 0.0307394 0.083
    endloop
  endfacet
  facet normal -0.75184 0.659346 0
    outer loop
      vertex -0.0335461 0.0307394 0.003
      vertex -0.034855 0.0292468 0.003
      vertex -0.0335461 0.0307394 0.083
    endloop
  endfacet
  facet normal -0.75184 0.659346 0
    outer loop
      vertex -0.0335461 0.0307394 0.083
      vertex -0.034855 0.0292468 0.003
      vertex -0.034855 0.0292468 0.083
    endloop
  endfacet
  facet normal -0.779884 0.625924 0
    outer loop
      vertex -0.034855 0.0292468 0.003
      vertex -0.0360976 0.0276986 0.003
      vertex -0.034855 0.0292468 0.083
    endloop
  endfacet
  facet normal -0.779884 0.625924 0
    outer loop
      vertex -0.034855 0.0292468 0.083
      vertex -0.0360976 0.0276986 0.003
      vertex -0.0360976 0.0276986 0.083
    endloop
  endfacet
  facet normal -0.806445 0.591309 0
    outer loop
      vertex -0.0360976 0.0276986 0.003
      vertex -0.0372714 0.0260977 0.003
      vertex -0.0360976 0.0276986 0.083
    endloop
  endfacet
  facet normal -0.806445 0.591309 0
    outer loop
      vertex -0.0360976 0.0276986 0.083
      vertex -0.0372714 0.0260977 0.003
      vertex -0.0372714 0.0260977 0.083
    endloop
  endfacet
  facet normal -0.831469 0.555571 0
    outer loop
      vertex -0.0372714 0.0260977 0.003
      vertex -0.0383743 0.0244471 0.003
      vertex -0.0372714 0.0260977 0.083
    endloop
  endfacet
  facet normal -0.831469 0.555571 0
    outer loop
      vertex -0.0372714 0.0260977 0.083
      vertex -0.0383743 0.0244471 0.003
      vertex -0.0383743 0.0244471 0.083
    endloop
  endfacet
  facet normal -0.854912 0.518773 0
    outer loop
      vertex -0.0383743 0.0244471 0.003
      vertex -0.0394042 0.02275 0.003
      vertex -0.0383743 0.0244471 0.083
    endloop
  endfacet
  facet normal -0.854912 0.518773 0
    outer loop
      vertex -0.0383743 0.0244471 0.083
      vertex -0.0394042 0.02275 0.003
      vertex -0.0394042 0.02275 0.083
    endloop
  endfacet
  facet normal -0.876727 0.480989 0
    outer loop
      vertex -0.0394042 0.02275 0.003
      vertex -0.040359 0.0210096 0.003
      vertex -0.0394042 0.02275 0.083
    endloop
  endfacet
  facet normal -0.876727 0.480989 0
    outer loop
      vertex -0.0394042 0.02275 0.083
      vertex -0.040359 0.0210096 0.003
      vertex -0.040359 0.0210096 0.083
    endloop
  endfacet
  facet normal -0.896873 0.442288 0
    outer loop
      vertex -0.040359 0.0210096 0.003
      vertex -0.041237 0.0192291 0.003
      vertex -0.040359 0.0210096 0.083
    endloop
  endfacet
  facet normal -0.896873 0.442288 0
    outer loop
      vertex -0.040359 0.0210096 0.083
      vertex -0.041237 0.0192291 0.003
      vertex -0.041237 0.0192291 0.083
    endloop
  endfacet
  facet normal -0.915311 0.402747 0
    outer loop
      vertex -0.041237 0.0192291 0.003
      vertex -0.0420365 0.0174121 0.003
      vertex -0.041237 0.0192291 0.083
    endloop
  endfacet
  facet normal -0.915311 0.402747 0
    outer loop
      vertex -0.041237 0.0192291 0.083
      vertex -0.0420365 0.0174121 0.003
      vertex -0.0420365 0.0174121 0.083
    endloop
  endfacet
  facet normal -0.932008 0.362438 0
    outer loop
      vertex -0.0420365 0.0174121 0.003
      vertex -0.042756 0.0155619 0.003
      vertex -0.0420365 0.0174121 0.083
    endloop
  endfacet
  facet normal -0.932008 0.362438 0
    outer loop
      vertex -0.0420365 0.0174121 0.083
      vertex -0.042756 0.0155619 0.003
      vertex -0.042756 0.0155619 0.083
    endloop
  endfacet
  facet normal -0.94693 0.32144 0
    outer loop
      vertex -0.042756 0.0155619 0.003
      vertex -0.0433941 0.0136821 0.003
      vertex -0.042756 0.0155619 0.083
    endloop
  endfacet
  facet normal -0.94693 0.32144 0
    outer loop
      vertex -0.042756 0.0155619 0.083
      vertex -0.0433941 0.0136821 0.003
      vertex -0.0433941 0.0136821 0.083
    endloop
  endfacet
  facet normal -0.96005 0.279829 0
    outer loop
      vertex -0.0433941 0.0136821 0.003
      vertex -0.0439496 0.0117763 0.003
      vertex -0.0433941 0.0136821 0.083
    endloop
  endfacet
  facet normal -0.96005 0.279829 0
    outer loop
      vertex -0.0433941 0.0136821 0.083
      vertex -0.0439496 0.0117763 0.003
      vertex -0.0439496 0.0117763 0.083
    endloop
  endfacet
  facet normal -0.971342 0.237685 0
    outer loop
      vertex -0.0439496 0.0117763 0.003
      vertex -0.0444215 0.009848 0.003
      vertex -0.0439496 0.0117763 0.083
    endloop
  endfacet
  facet normal -0.971342 0.237685 0
    outer loop
      vertex -0.0439496 0.0117763 0.083
      vertex -0.0444215 0.009848 0.003
      vertex -0.0444215 0.009848 0.083
    endloop
  endfacet
  facet normal -0.980785 0.195091 0
    outer loop
      vertex -0.0444215 0.009848 0.003
      vertex -0.0448088 0.00790099 0.003
      vertex -0.0444215 0.009848 0.083
    endloop
  endfacet
  facet normal -0.980785 0.195091 0
    outer loop
      vertex -0.0444215 0.009848 0.083
      vertex -0.0448088 0.00790099 0.003
      vertex -0.0448088 0.00790099 0.083
    endloop
  endfacet
  facet normal -0.988362 0.152123 0
    outer loop
      vertex -0.0448088 0.00790099 0.003
      vertex -0.0451107 0.00593894 0.003
      vertex -0.0448088 0.00790099 0.083
    endloop
  endfacet
  facet normal -0.988362 0.152123 0
    outer loop
      vertex -0.0448088 0.00790099 0.083
      vertex -0.0451107 0.00593894 0.003
      vertex -0.0451107 0.00593894 0.083
    endloop
  endfacet
  facet normal -0.994056 0.108868 0
    outer loop
      vertex -0.0451107 0.00593894 0.003
      vertex -0.0453269 0.00396559 0.003
      vertex -0.0451107 0.00593894 0.083
    endloop
  endfacet
  facet normal -0.994056 0.108868 0
    outer loop
      vertex -0.0451107 0.00593894 0.083
      vertex -0.0453269 0.00396559 0.003
      vertex -0.0453269 0.00396559 0.083
    endloop
  endfacet
  facet normal -0.997859 0.0654024 0
    outer loop
      vertex -0.0453269 0.00396559 0.003
      vertex -0.0454567 0.00198468 0.003
      vertex -0.0453269 0.00396559 0.083
    endloop
  endfacet
  facet normal -0.997859 0.0654024 0
    outer loop
      vertex -0.0453269 0.00396559 0.083
      vertex -0.0454567 0.00198468 0.003
      vertex -0.0454567 0.00198468 0.083
    endloop
  endfacet
  facet normal -0.999762 0.0218152 0
    outer loop
      vertex -0.0454567 0.00198468 0.003
      vertex -0.0455 1.67164e-17 0.003
      vertex -0.0454567 0.00198468 0.083
    endloop
  endfacet
  facet normal -0.999762 0.0218152 3.08346e-18
    outer loop
      vertex -0.0454567 0.00198468 0.083
      vertex -0.0455 1.67164e-17 0.003
      vertex -0.0455 5.57214e-18 0.083
    endloop
  endfacet
  facet normal -0.999762 -0.0218152 -3.03893e-18
    outer loop
      vertex -0.0455 1.67164e-17 0.003
      vertex -0.0454567 -0.00198468 0.003
      vertex -0.0455 5.57214e-18 0.083
    endloop
  endfacet
  facet normal -0.999762 -0.0218152 0
    outer loop
      vertex -0.0455 5.57214e-18 0.083
      vertex -0.0454567 -0.00198468 0.003
      vertex -0.0454567 -0.00198468 0.083
    endloop
  endfacet
  facet normal -0.997859 -0.0654024 0
    outer loop
      vertex -0.0454567 -0.00198468 0.003
      vertex -0.0453269 -0.00396559 0.003
      vertex -0.0454567 -0.00198468 0.083
    endloop
  endfacet
  facet normal -0.997859 -0.0654024 0
    outer loop
      vertex -0.0454567 -0.00198468 0.083
      vertex -0.0453269 -0.00396559 0.003
      vertex -0.0453269 -0.00396559 0.083
    endloop
  endfacet
  facet normal -0.994056 -0.108868 0
    outer loop
      vertex -0.0453269 -0.00396559 0.003
      vertex -0.0451107 -0.00593894 0.003
      vertex -0.0453269 -0.00396559 0.083
    endloop
  endfacet
  facet normal -0.994056 -0.108868 0
    outer loop
      vertex -0.0453269 -0.00396559 0.083
      vertex -0.0451107 -0.00593894 0.003
      vertex -0.0451107 -0.00593894 0.083
    endloop
  endfacet
  facet normal -0.988362 -0.152123 0
    outer loop
      vertex -0.0451107 -0.00593894 0.003
      vertex -0.0448088 -0.00790099 0.003
      vertex -0.0451107 -0.00593894 0.083
    endloop
  endfacet
  facet normal -0.988362 -0.152123 0
    outer loop
      vertex -0.0451107 -0.00593894 0.083
      vertex -0.0448088 -0.00790099 0.003
      vertex -0.0448088 -0.00790099 0.083
    endloop
  endfacet
  facet normal -0.980785 -0.195091 0
    outer loop
      vertex -0.0448088 -0.00790099 0.003
      vertex -0.0444215 -0.009848 0.003
      vertex -0.0448088 -0.00790099 0.083
    endloop
  endfacet
  facet normal -0.980785 -0.195091 0
    outer loop
      vertex -0.0448088 -0.00790099 0.083
      vertex -0.0444215 -0.009848 0.003
      vertex -0.0444215 -0.009848 0.083
    endloop
  endfacet
  facet normal -0.971342 -0.237685 0
    outer loop
      vertex -0.0444215 -0.009848 0.003
      vertex -0.0439496 -0.0117763 0.003
      vertex -0.0444215 -0.009848 0.083
    endloop
  endfacet
  facet normal -0.971342 -0.237685 0
    outer loop
      vertex -0.0444215 -0.009848 0.083
      vertex -0.0439496 -0.0117763 0.003
      vertex -0.0439496 -0.0117763 0.083
    endloop
  endfacet
  facet normal -0.96005 -0.279829 0
    outer loop
      vertex -0.0439496 -0.0117763 0.003
      vertex -0.0433941 -0.0136821 0.003
      vertex -0.0439496 -0.0117763 0.083
    endloop
  endfacet
  facet normal -0.96005 -0.279829 0
    outer loop
      vertex -0.0439496 -0.0117763 0.083
      vertex -0.0433941 -0.0136821 0.003
      vertex -0.0433941 -0.0136821 0.083
    endloop
  endfacet
  facet normal -0.94693 -0.32144 0
    outer loop
      vertex -0.0433941 -0.0136821 0.003
      vertex -0.042756 -0.0155619 0.003
      vertex -0.0433941 -0.0136821 0.083
    endloop
  endfacet
  facet normal -0.94693 -0.32144 0
    outer loop
      vertex -0.0433941 -0.0136821 0.083
      vertex -0.042756 -0.0155619 0.003
      vertex -0.042756 -0.0155619 0.083
    endloop
  endfacet
  facet normal -0.932008 -0.362438 0
    outer loop
      vertex -0.042756 -0.0155619 0.003
      vertex -0.0420365 -0.0174121 0.003
      vertex -0.042756 -0.0155619 0.083
    endloop
  endfacet
  facet normal -0.932008 -0.362438 0
    outer loop
      vertex -0.042756 -0.0155619 0.083
      vertex -0.0420365 -0.0174121 0.003
      vertex -0.0420365 -0.0174121 0.083
    endloop
  endfacet
  facet normal -0.915311 -0.402747 0
    outer loop
      vertex -0.0420365 -0.0174121 0.003
      vertex -0.041237 -0.0192291 0.003
      vertex -0.0420365 -0.0174121 0.083
    endloop
  endfacet
  facet normal -0.915311 -0.402747 0
    outer loop
      vertex -0.0420365 -0.0174121 0.083
      vertex -0.041237 -0.0192291 0.003
      vertex -0.041237 -0.0192291 0.083
    endloop
  endfacet
  facet normal -0.896873 -0.442288 0
    outer loop
      vertex -0.041237 -0.0192291 0.003
      vertex -0.040359 -0.0210096 0.003
      vertex -0.041237 -0.0192291 0.083
    endloop
  endfacet
  facet normal -0.896873 -0.442288 0
    outer loop
      vertex -0.041237 -0.0192291 0.083
      vertex -0.040359 -0.0210096 0.003
      vertex -0.040359 -0.0210096 0.083
    endloop
  endfacet
  facet normal -0.876727 -0.480989 0
    outer loop
      vertex -0.040359 -0.0210096 0.003
      vertex -0.0394042 -0.02275 0.003
      vertex -0.040359 -0.0210096 0.083
    endloop
  endfacet
  facet normal -0.876727 -0.480989 0
    outer loop
      vertex -0.040359 -0.0210096 0.083
      vertex -0.0394042 -0.02275 0.003
      vertex -0.0394042 -0.02275 0.083
    endloop
  endfacet
  facet normal -0.854912 -0.518773 0
    outer loop
      vertex -0.0394042 -0.02275 0.003
      vertex -0.0383743 -0.0244471 0.003
      vertex -0.0394042 -0.02275 0.083
    endloop
  endfacet
  facet normal -0.854912 -0.518773 0
    outer loop
      vertex -0.0394042 -0.02275 0.083
      vertex -0.0383743 -0.0244471 0.003
      vertex -0.0383743 -0.0244471 0.083
    endloop
  endfacet
  facet normal -0.831469 -0.555571 0
    outer loop
      vertex -0.0383743 -0.0244471 0.003
      vertex -0.0372714 -0.0260977 0.003
      vertex -0.0383743 -0.0244471 0.083
    endloop
  endfacet
  facet normal -0.831469 -0.555571 0
    outer loop
      vertex -0.0383743 -0.0244471 0.083
      vertex -0.0372714 -0.0260977 0.003
      vertex -0.0372714 -0.0260977 0.083
    endloop
  endfacet
  facet normal -0.806445 -0.591309 0
    outer loop
      vertex -0.0372714 -0.0260977 0.003
      vertex -0.0360976 -0.0276986 0.003
      vertex -0.0372714 -0.0260977 0.083
    endloop
  endfacet
  facet normal -0.806445 -0.591309 0
    outer loop
      vertex -0.0372714 -0.0260977 0.083
      vertex -0.0360976 -0.0276986 0.003
      vertex -0.0360976 -0.0276986 0.083
    endloop
  endfacet
  facet normal -0.779884 -0.625924 0
    outer loop
      vertex -0.0360976 -0.0276986 0.003
      vertex -0.034855 -0.0292468 0.003
      vertex -0.0360976 -0.0276986 0.083
    endloop
  endfacet
  facet normal -0.779884 -0.625924 0
    outer loop
      vertex -0.0360976 -0.0276986 0.083
      vertex -0.034855 -0.0292468 0.003
      vertex -0.034855 -0.0292468 0.083
    endloop
  endfacet
  facet normal -0.75184 -0.659346 0
    outer loop
      vertex -0.034855 -0.0292468 0.003
      vertex -0.0335461 -0.0307394 0.003
      vertex -0.034855 -0.0292468 0.083
    endloop
  endfacet
  facet normal -0.75184 -0.659346 0
    outer loop
      vertex -0.034855 -0.0292468 0.083
      vertex -0.0335461 -0.0307394 0.003
      vertex -0.0335461 -0.0307394 0.083
    endloop
  endfacet
  facet normal -0.722363 -0.691514 0
    outer loop
      vertex -0.0335461 -0.0307394 0.003
      vertex -0.0321734 -0.0321734 0.003
      vertex -0.0335461 -0.0307394 0.083
    endloop
  endfacet
  facet normal -0.722363 -0.691514 0
    outer loop
      vertex -0.0335461 -0.0307394 0.083
      vertex -0.0321734 -0.0321734 0.003
      vertex -0.0321734 -0.0321734 0.083
    endloop
  endfacet
  facet normal -0.691514 -0.722363 0
    outer loop
      vertex -0.0321734 -0.0321734 0.003
      vertex -0.0307394 -0.0335461 0.003
      vertex -0.0321734 -0.0321734 0.083
    endloop
  endfacet
  facet normal -0.691514 -0.722363 0
    outer loop
      vertex -0.0321734 -0.0321734 0.083
      vertex -0.0307394 -0.0335461 0.003
      vertex -0.0307394 -0.0335461 0.083
    endloop
  endfacet
  facet normal -0.659346 -0.75184 0
    outer loop
      vertex -0.0307394 -0.0335461 0.003
      vertex -0.0292468 -0.034855 0.003
      vertex -0.0307394 -0.0335461 0.083
    endloop
  endfacet
  facet normal -0.659346 -0.75184 0
    outer loop
      vertex -0.0307394 -0.0335461 0.083
      vertex -0.0292468 -0.034855 0.003
      vertex -0.0292468 -0.034855 0.083
    endloop
  endfacet
  facet normal -0.625924 -0.779884 0
    outer loop
      vertex -0.0292468 -0.034855 0.003
      vertex -0.0276986 -0.0360976 0.003
      vertex -0.0292468 -0.034855 0.083
    endloop
  endfacet
  facet normal -0.625924 -0.779884 0
    outer loop
      vertex -0.0292468 -0.034855 0.083
      vertex -0.0276986 -0.0360976 0.003
      vertex -0.0276986 -0.0360976 0.083
    endloop
  endfacet
  facet normal -0.591309 -0.806445 0
    outer loop
      vertex -0.0276986 -0.0360976 0.003
      vertex -0.0260977 -0.0372714 0.003
      vertex -0.0276986 -0.0360976 0.083
    endloop
  endfacet
  facet normal -0.591309 -0.806445 0
    outer loop
      vertex -0.0276986 -0.0360976 0.083
      vertex -0.0260977 -0.0372714 0.003
      vertex -0.0260977 -0.0372714 0.083
    endloop
  endfacet
  facet normal -0.555571 -0.831469 0
    outer loop
      vertex -0.0260977 -0.0372714 0.003
      vertex -0.0244471 -0.0383743 0.003
      vertex -0.0260977 -0.0372714 0.083
    endloop
  endfacet
  facet normal -0.555571 -0.831469 0
    outer loop
      vertex -0.0260977 -0.0372714 0.083
      vertex -0.0244471 -0.0383743 0.003
      vertex -0.0244471 -0.0383743 0.083
    endloop
  endfacet
  facet normal -0.518773 -0.854912 0
    outer loop
      vertex -0.0244471 -0.0383743 0.003
      vertex -0.02275 -0.0394042 0.003
      vertex -0.0244471 -0.0383743 0.083
    endloop
  endfacet
  facet normal -0.518773 -0.854912 0
    outer loop
      vertex -0.0244471 -0.0383743 0.083
      vertex -0.02275 -0.0394042 0.003
      vertex -0.02275 -0.0394042 0.083
    endloop
  endfacet
  facet normal -0.480989 -0.876727 0
    outer loop
      vertex -0.02275 -0.0394042 0.003
      vertex -0.0210096 -0.040359 0.003
      vertex -0.02275 -0.0394042 0.083
    endloop
  endfacet
  facet normal -0.480989 -0.876727 0
    outer loop
      vertex -0.02275 -0.0394042 0.083
      vertex -0.0210096 -0.040359 0.003
      vertex -0.0210096 -0.040359 0.083
    endloop
  endfacet
  facet normal -0.442288 -0.896873 0
    outer loop
      vertex -0.0210096 -0.040359 0.003
      vertex -0.0192291 -0.041237 0.003
      vertex -0.0210096 -0.040359 0.083
    endloop
  endfacet
  facet normal -0.442288 -0.896873 0
    outer loop
      vertex -0.0210096 -0.040359 0.083
      vertex -0.0192291 -0.041237 0.003
      vertex -0.0192291 -0.041237 0.083
    endloop
  endfacet
  facet normal -0.402747 -0.915311 0
    outer loop
      vertex -0.0192291 -0.041237 0.003
      vertex -0.0174121 -0.0420365 0.003
      vertex -0.0192291 -0.041237 0.083
    endloop
  endfacet
  facet normal -0.402747 -0.915311 0
    outer loop
      vertex -0.0192291 -0.041237 0.083
      vertex -0.0174121 -0.0420365 0.003
      vertex -0.0174121 -0.0420365 0.083
    endloop
  endfacet
  facet normal -0.362438 -0.932008 0
    outer loop
      vertex -0.0174121 -0.0420365 0.003
      vertex -0.0155619 -0.042756 0.003
      vertex -0.0174121 -0.0420365 0.083
    endloop
  endfacet
  facet normal -0.362438 -0.932008 0
    outer loop
      vertex -0.0174121 -0.0420365 0.083
      vertex -0.0155619 -0.042756 0.003
      vertex -0.0155619 -0.042756 0.083
    endloop
  endfacet
  facet normal -0.32144 -0.94693 0
    outer loop
      vertex -0.0155619 -0.042756 0.003
      vertex -0.0136821 -0.0433941 0.003
      vertex -0.0155619 -0.042756 0.083
    endloop
  endfacet
  facet normal -0.32144 -0.94693 0
    outer loop
      vertex -0.0155619 -0.042756 0.083
      vertex -0.0136821 -0.0433941 0.003
      vertex -0.0136821 -0.0433941 0.083
    endloop
  endfacet
  facet normal -0.279829 -0.96005 0
    outer loop
      vertex -0.0136821 -0.0433941 0.003
      vertex -0.0117763 -0.0439496 0.003
      vertex -0.0136821 -0.0433941 0.083
    endloop
  endfacet
  facet normal -0.279829 -0.96005 0
    outer loop
      vertex -0.0136821 -0.0433941 0.083
      vertex -0.0117763 -0.0439496 0.003
      vertex -0.0117763 -0.0439496 0.083
    endloop
  endfacet
  facet normal -0.237685 -0.971342 0
    outer loop
      vertex -0.0117763 -0.0439496 0.003
      vertex -0.009848 -0.0444215 0.003
      vertex -0.0117763 -0.0439496 0.083
    endloop
  endfacet
  facet normal -0.237685 -0.971342 0
    outer loop
      vertex -0.0117763 -0.0439496 0.083
      vertex -0.009848 -0.0444215 0.003
      vertex -0.009848 -0.0444215 0.083
    endloop
  endfacet
  facet normal -0.195091 -0.980785 0
    outer loop
      vertex -0.009848 -0.0444215 0.003
      vertex -0.00790099 -0.0448088 0.003
      vertex -0.009848 -0.0444215 0.083
    endloop
  endfacet
  facet normal -0.195091 -0.980785 0
    outer loop
      vertex -0.009848 -0.0444215 0.083
      vertex -0.00790099 -0.0448088 0.003
      vertex -0.00790099 -0.0448088 0.083
    endloop
  endfacet
  facet normal -0.152123 -0.988362 0
    outer loop
      vertex -0.00790099 -0.0448088 0.003
      vertex -0.00593894 -0.0451107 0.003
      vertex -0.00790099 -0.0448088 0.083
    endloop
  endfacet
  facet normal -0.152123 -0.988362 0
    outer loop
      vertex -0.00790099 -0.0448088 0.083
      vertex -0.00593894 -0.0451107 0.003
      vertex -0.00593894 -0.0451107 0.083
    endloop
  endfacet
  facet normal -0.108868 -0.994056 0
    outer loop
      vertex -0.00593894 -0.0451107 0.003
      vertex -0.00396559 -0.0453269 0.003
      vertex -0.00593894 -0.0451107 0.083
    endloop
  endfacet
  facet normal -0.108868 -0.994056 0
    outer loop
      vertex -0.00593894 -0.0451107 0.083
      vertex -0.00396559 -0.0453269 0.003
      vertex -0.00396559 -0.0453269 0.083
    endloop
  endfacet
  facet normal -0.0654024 -0.997859 0
    outer loop
      vertex -0.00396559 -0.0453269 0.003
      vertex -0.00198468 -0.0454567 0.003
      vertex -0.00396559 -0.0453269 0.083
    endloop
  endfacet
  facet normal -0.0654024 -0.997859 0
    outer loop
      vertex -0.00396559 -0.0453269 0.083
      vertex -0.00198468 -0.0454567 0.003
      vertex -0.00198468 -0.0454567 0.083
    endloop
  endfacet
  facet normal -0.0218152 -0.999762 0
    outer loop
      vertex -0.00198468 -0.0454567 0.003
      vertex -8.35821e-18 -0.0455 0.003
      vertex -0.00198468 -0.0454567 0.083
    endloop
  endfacet
  facet normal -0.0218152 -0.999762 0
    outer loop
      vertex -0.00198468 -0.0454567 0.083
      vertex -8.35821e-18 -0.0455 0.003
      vertex -8.35821e-18 -0.0455 0.083
    endloop
  endfacet
  facet normal 0.0218152 -0.999762 0
    outer loop
      vertex -8.35821e-18 -0.0455 0.003
      vertex 0.00198468 -0.0454567 0.003
      vertex -8.35821e-18 -0.0455 0.083
    endloop
  endfacet
  facet normal 0.0218152 -0.999762 0
    outer loop
      vertex -8.35821e-18 -0.0455 0.083
      vertex 0.00198468 -0.0454567 0.003
      vertex 0.00198468 -0.0454567 0.083
    endloop
  endfacet
  facet normal 0.0654024 -0.997859 0
    outer loop
      vertex 0.00198468 -0.0454567 0.003
      vertex 0.00396559 -0.0453269 0.003
      vertex 0.00198468 -0.0454567 0.083
    endloop
  endfacet
  facet normal 0.0654024 -0.997859 0
    outer loop
      vertex 0.00198468 -0.0454567 0.083
      vertex 0.00396559 -0.0453269 0.003
      vertex 0.00396559 -0.0453269 0.083
    endloop
  endfacet
  facet normal 0.108868 -0.994056 0
    outer loop
      vertex 0.00396559 -0.0453269 0.003
      vertex 0.00593894 -0.0451107 0.003
      vertex 0.00396559 -0.0453269 0.083
    endloop
  endfacet
  facet normal 0.108868 -0.994056 0
    outer loop
      vertex 0.00396559 -0.0453269 0.083
      vertex 0.00593894 -0.0451107 0.003
      vertex 0.00593894 -0.0451107 0.083
    endloop
  endfacet
  facet normal 0.152123 -0.988362 0
    outer loop
      vertex 0.00593894 -0.0451107 0.003
      vertex 0.00790099 -0.0448088 0.003
      vertex 0.00593894 -0.0451107 0.083
    endloop
  endfacet
  facet normal 0.152123 -0.988362 0
    outer loop
      vertex 0.00593894 -0.0451107 0.083
      vertex 0.00790099 -0.0448088 0.003
      vertex 0.00790099 -0.0448088 0.083
    endloop
  endfacet
  facet normal 0.195091 -0.980785 0
    outer loop
      vertex 0.00790099 -0.0448088 0.003
      vertex 0.009848 -0.0444215 0.003
      vertex 0.00790099 -0.0448088 0.083
    endloop
  endfacet
  facet normal 0.195091 -0.980785 0
    outer loop
      vertex 0.00790099 -0.0448088 0.083
      vertex 0.009848 -0.0444215 0.003
      vertex 0.009848 -0.0444215 0.083
    endloop
  endfacet
  facet normal 0.237685 -0.971342 0
    outer loop
      vertex 0.009848 -0.0444215 0.003
      vertex 0.0117763 -0.0439496 0.003
      vertex 0.009848 -0.0444215 0.083
    endloop
  endfacet
  facet normal 0.237685 -0.971342 0
    outer loop
      vertex 0.009848 -0.0444215 0.083
      vertex 0.0117763 -0.0439496 0.003
      vertex 0.0117763 -0.0439496 0.083
    endloop
  endfacet
  facet normal 0.279829 -0.96005 0
    outer loop
      vertex 0.0117763 -0.0439496 0.003
      vertex 0.0136821 -0.0433941 0.003
      vertex 0.0117763 -0.0439496 0.083
    endloop
  endfacet
  facet normal 0.279829 -0.96005 0
    outer loop
      vertex 0.0117763 -0.0439496 0.083
      vertex 0.0136821 -0.0433941 0.003
      vertex 0.0136821 -0.0433941 0.083
    endloop
  endfacet
  facet normal 0.32144 -0.94693 0
    outer loop
      vertex 0.0136821 -0.0433941 0.003
      vertex 0.0155619 -0.042756 0.003
      vertex 0.0136821 -0.0433941 0.083
    endloop
  endfacet
  facet normal 0.32144 -0.94693 0
    outer loop
      vertex 0.0136821 -0.0433941 0.083
      vertex 0.0155619 -0.042756 0.003
      vertex 0.0155619 -0.042756 0.083
    endloop
  endfacet
  facet normal 0.362438 -0.932008 0
    outer loop
      vertex 0.0155619 -0.042756 0.003
      vertex 0.0174121 -0.0420365 0.003
      vertex 0.0155619 -0.042756 0.083
    endloop
  endfacet
  facet normal 0.362438 -0.932008 0
    outer loop
      vertex 0.0155619 -0.042756 0.083
      vertex 0.0174121 -0.0420365 0.003
      vertex 0.0174121 -0.0420365 0.083
    endloop
  endfacet
  facet normal 0.402747 -0.915311 0
    outer loop
      vertex 0.0174121 -0.0420365 0.003
      vertex 0.0192291 -0.041237 0.003
      vertex 0.0174121 -0.0420365 0.083
    endloop
  endfacet
  facet normal 0.402747 -0.915311 0
    outer loop
      vertex 0.0174121 -0.0420365 0.083
      vertex 0.0192291 -0.041237 0.003
      vertex 0.0192291 -0.041237 0.083
    endloop
  endfacet
  facet normal 0.442288 -0.896873 0
    outer loop
      vertex 0.0192291 -0.041237 0.003
      vertex 0.0210096 -0.040359 0.003
      vertex 0.0192291 -0.041237 0.083
    endloop
  endfacet
  facet normal 0.442288 -0.896873 0
    outer loop
      vertex 0.0192291 -0.041237 0.083
      vertex 0.0210096 -0.040359 0.003
      vertex 0.0210096 -0.040359 0.083
    endloop
  endfacet
  facet normal 0.480989 -0.876727 0
    outer loop
      vertex 0.0210096 -0.040359 0.003
      vertex 0.02275 -0.0394042 0.003
      vertex 0.0210096 -0.040359 0.083
    endloop
  endfacet
  facet normal 0.480989 -0.876727 0
    outer loop
      vertex 0.0210096 -0.040359 0.083
      vertex 0.02275 -0.0394042 0.003
      vertex 0.02275 -0.0394042 0.083
    endloop
  endfacet
  facet normal 0.518773 -0.854912 0
    outer loop
      vertex 0.02275 -0.0394042 0.003
      vertex 0.0244471 -0.0383743 0.003
      vertex 0.02275 -0.0394042 0.083
    endloop
  endfacet
  facet normal 0.518773 -0.854912 0
    outer loop
      vertex 0.02275 -0.0394042 0.083
      vertex 0.0244471 -0.0383743 0.003
      vertex 0.0244471 -0.0383743 0.083
    endloop
  endfacet
  facet normal 0.555571 -0.831469 0
    outer loop
      vertex 0.0244471 -0.0383743 0.003
      vertex 0.0260977 -0.0372714 0.003
      vertex 0.0244471 -0.0383743 0.083
    endloop
  endfacet
  facet normal 0.555571 -0.831469 0
    outer loop
      vertex 0.0244471 -0.0383743 0.083
      vertex 0.0260977 -0.0372714 0.003
      vertex 0.0260977 -0.0372714 0.083
    endloop
  endfacet
  facet normal 0.591309 -0.806445 0
    outer loop
      vertex 0.0260977 -0.0372714 0.003
      vertex 0.0276986 -0.0360976 0.003
      vertex 0.0260977 -0.0372714 0.083
    endloop
  endfacet
  facet normal 0.591309 -0.806445 0
    outer loop
      vertex 0.0260977 -0.0372714 0.083
      vertex 0.0276986 -0.0360976 0.003
      vertex 0.0276986 -0.0360976 0.083
    endloop
  endfacet
  facet normal 0.625924 -0.779884 0
    outer loop
      vertex 0.0276986 -0.0360976 0.003
      vertex 0.0292468 -0.034855 0.003
      vertex 0.0276986 -0.0360976 0.083
    endloop
  endfacet
  facet normal 0.625924 -0.779884 0
    outer loop
      vertex 0.0276986 -0.0360976 0.083
      vertex 0.0292468 -0.034855 0.003
      vertex 0.0292468 -0.034855 0.083
    endloop
  endfacet
  facet normal 0.659346 -0.75184 0
    outer loop
      vertex 0.0292468 -0.034855 0.003
      vertex 0.0307394 -0.0335461 0.003
      vertex 0.0292468 -0.034855 0.083
    endloop
  endfacet
  facet normal 0.659346 -0.75184 0
    outer loop
      vertex 0.0292468 -0.034855 0.083
      vertex 0.0307394 -0.0335461 0.003
      vertex 0.0307394 -0.0335461 0.083
    endloop
  endfacet
  facet normal 0.691514 -0.722363 0
    outer loop
      vertex 0.0307394 -0.0335461 0.003
      vertex 0.0321734 -0.0321734 0.003
      vertex 0.0307394 -0.0335461 0.083
    endloop
  endfacet
  facet normal 0.691514 -0.722363 0
    outer loop
      vertex 0.0307394 -0.0335461 0.083
      vertex 0.0321734 -0.0321734 0.003
      vertex 0.0321734 -0.0321734 0.083
    endloop
  endfacet
  facet normal 0.722363 -0.691514 0
    outer loop
      vertex 0.0321734 -0.0321734 0.003
      vertex 0.0335461 -0.0307394 0.003
      vertex 0.0321734 -0.0321734 0.083
    endloop
  endfacet
  facet normal 0.722363 -0.691514 0
    outer loop
      vertex 0.0321734 -0.0321734 0.083
      vertex 0.0335461 -0.0307394 0.003
      vertex 0.0335461 -0.0307394 0.083
    endloop
  endfacet
  facet normal 0.75184 -0.659346 0
    outer loop
      vertex 0.0335461 -0.0307394 0.003
      vertex 0.034855 -0.0292468 0.003
      vertex 0.0335461 -0.0307394 0.083
    endloop
  endfacet
  facet normal 0.75184 -0.659346 0
    outer loop
      vertex 0.0335461 -0.0307394 0.083
      vertex 0.034855 -0.0292468 0.003
      vertex 0.034855 -0.0292468 0.083
    endloop
  endfacet
  facet normal 0.779884 -0.625924 0
    outer loop
      vertex 0.034855 -0.0292468 0.003
      vertex 0.0360976 -0.0276986 0.003
      vertex 0.034855 -0.0292468 0.083
    endloop
  endfacet
  facet normal 0.779884 -0.625924 0
    outer loop
      vertex 0.034855 -0.0292468 0.083
      vertex 0.0360976 -0.0276986 0.003
      vertex 0.0360976 -0.0276986 0.083
    endloop
  endfacet
  facet normal 0.806445 -0.591309 0
    outer loop
      vertex 0.0360976 -0.0276986 0.003
      vertex 0.0372714 -0.0260977 0.003
      vertex 0.0360976 -0.0276986 0.083
    endloop
  endfacet
  facet normal 0.806445 -0.591309 0
    outer loop
      vertex 0.0360976 -0.0276986 0.083
      vertex 0.0372714 -0.0260977 0.003
      vertex 0.0372714 -0.0260977 0.083
    endloop
  endfacet
  facet normal 0.831469 -0.555571 0
    outer loop
      vertex 0.0372714 -0.0260977 0.003
      vertex 0.0383743 -0.0244471 0.003
      vertex 0.0372714 -0.0260977 0.083
    endloop
  endfacet
  facet normal 0.831469 -0.555571 0
    outer loop
      vertex 0.0372714 -0.0260977 0.083
      vertex 0.0383743 -0.0244471 0.003
      vertex 0.0383743 -0.0244471 0.083
    endloop
  endfacet
  facet normal 0.854912 -0.518773 0
    outer loop
      vertex 0.0383743 -0.0244471 0.003
      vertex 0.0394042 -0.02275 0.003
      vertex 0.0383743 -0.0244471 0.083
    endloop
  endfacet
  facet normal 0.854912 -0.518773 0
    outer loop
      vertex 0.0383743 -0.0244471 0.083
      vertex 0.0394042 -0.02275 0.003
      vertex 0.0394042 -0.02275 0.083
    endloop
  endfacet
  facet normal 0.876727 -0.480989 0
    outer loop
      vertex 0.0394042 -0.02275 0.003
      vertex 0.040359 -0.0210096 0.003
      vertex 0.0394042 -0.02275 0.083
    endloop
  endfacet
  facet normal 0.876727 -0.480989 0
    outer loop
      vertex 0.0394042 -0.02275 0.083
      vertex 0.040359 -0.0210096 0.003
      vertex 0.040359 -0.0210096 0.083
    endloop
  endfacet
  facet normal 0.896873 -0.442288 0
    outer loop
      vertex 0.040359 -0.0210096 0.003
      vertex 0.041237 -0.0192291 0.003
      vertex 0.040359 -0.0210096 0.083
    endloop
  endfacet
  facet normal 0.896873 -0.442288 0
    outer loop
      vertex 0.040359 -0.0210096 0.083
      vertex 0.041237 -0.0192291 0.003
      vertex 0.041237 -0.0192291 0.083
    endloop
  endfacet
  facet normal 0.915311 -0.402747 0
    outer loop
      vertex 0.041237 -0.0192291 0.003
      vertex 0.0420365 -0.0174121 0.003
      vertex 0.041237 -0.0192291 0.083
    endloop
  endfacet
  facet normal 0.915311 -0.402747 0
    outer loop
      vertex 0.041237 -0.0192291 0.083
      vertex 0.0420365 -0.0174121 0.003
      vertex 0.0420365 -0.0174121 0.083
    endloop
  endfacet
  facet normal 0.932008 -0.362438 0
    outer loop
      vertex 0.0420365 -0.0174121 0.003
      vertex 0.042756 -0.0155619 0.003
      vertex 0.0420365 -0.0174121 0.083
    endloop
  endfacet
  facet normal 0.932008 -0.362438 0
    outer loop
      vertex 0.0420365 -0.0174121 0.083
      vertex 0.042756 -0.0155619 0.003
      vertex 0.042756 -0.0155619 0.083
    endloop
  endfacet
  facet normal 0.94693 -0.32144 0
    outer loop
      vertex 0.042756 -0.0155619 0.003
      vertex 0.0433941 -0.0136821 0.003
      vertex 0.042756 -0.0155619 0.083
    endloop
  endfacet
  facet normal 0.94693 -0.32144 0
    outer loop
      vertex 0.042756 -0.0155619 0.083
      vertex 0.0433941 -0.0136821 0.003
      vertex 0.0433941 -0.0136821 0.083
    endloop
  endfacet
  facet normal 0.96005 -0.279829 0
    outer loop
      vertex 0.0433941 -0.0136821 0.003
      vertex 0.0439496 -0.0117763 0.003
      vertex 0.0433941 -0.0136821 0.083
    endloop
  endfacet
  facet normal 0.96005 -0.279829 0
    outer loop
      vertex 0.0433941 -0.0136821 0.083
      vertex 0.0439496 -0.0117763 0.003
      vertex 0.0439496 -0.0117763 0.083
    endloop
  endfacet
  facet normal 0.971342 -0.237685 0
    outer loop
      vertex 0.0439496 -0.0117763 0.003
      vertex 0.0444215 -0.009848 0.003
      vertex 0.0439496 -0.0117763 0.083
    endloop
  endfacet
  facet normal 0.971342 -0.237685 0
    outer loop
      vertex 0.0439496 -0.0117763 0.083
      vertex 0.0444215 -0.009848 0.003
      vertex 0.0444215 -0.009848 0.083
    endloop
  endfacet
  facet normal 0.980785 -0.195091 0
    outer loop
      vertex 0.0444215 -0.009848 0.003
      vertex 0.0448088 -0.00790099 0.003
      vertex 0.0444215 -0.009848 0.083
    endloop
  endfacet
  facet normal 0.980785 -0.195091 0
    outer loop
      vertex 0.0444215 -0.009848 0.083
      vertex 0.0448088 -0.00790099 0.003
      vertex 0.0448088 -0.00790099 0.083
    endloop
  endfacet
  facet normal 0.988362 -0.152123 0
    outer loop
      vertex 0.0448088 -0.00790099 0.003
      vertex 0.0451107 -0.00593894 0.003
      vertex 0.0448088 -0.00790099 0.083
    endloop
  endfacet
  facet normal 0.988362 -0.152123 0
    outer loop
      vertex 0.0448088 -0.00790099 0.083
      vertex 0.0451107 -0.00593894 0.003
      vertex 0.0451107 -0.00593894 0.083
    endloop
  endfacet
  facet normal 0.994056 -0.108868 0
    outer loop
      vertex 0.0451107 -0.00593894 0.003
      vertex 0.0453269 -0.00396559 0.003
      vertex 0.0451107 -0.00593894 0.083
    endloop
  endfacet
  facet normal 0.994056 -0.108868 0
    outer loop
      vertex 0.0451107 -0.00593894 0.083
      vertex 0.0453269 -0.00396559 0.003
      vertex 0.0453269 -0.00396559 0.083
    endloop
  endfacet
  facet normal 0.997859 -0.0654024 0
    outer loop
      vertex 0.0453269 -0.00396559 0.003
      vertex 0.0454567 -0.00198468 0.003
      vertex 0.0453269 -0.00396559 0.083
    endloop
  endfacet
  facet normal 0.997859 -0.0654024 0
    outer loop
      vertex 0.0453269 -0.00396559 0.083
      vertex 0.0454567 -0.00198468 0.003
      vertex 0.0454567 -0.00198468 0.083
    endloop
  endfacet
  facet normal 0.999762 -0.0218152 0
    outer loop
      vertex 0.0454567 -0.00198468 0.003
      vertex 0.0455 -1.11443e-17 0.003
      vertex 0.0454567 -0.00198468 0.083
    endloop
  endfacet
  facet normal 0.999762 -0.0218152 0
    outer loop
      vertex 0.0454567 -0.00198468 0.083
      vertex 0.0455 -1.11443e-17 0.003
      vertex 0.0455 -1.11443e-17 0.083
    endloop
  endfacet
  facet normal 0.999762 0.0218152 0
    outer loop
      vertex 0.0455 -1.11443e-17 0.003
      vertex 0.0454567 0.00198468 0.003
      vertex 0.0455 -1.11443e-17 0.083
    endloop
  endfacet
endsolid outletSide
